<?xml version="1.0" encoding="iso-8859-1"?>
<!-- Uploaded to: SVG Repo, www.svgrepo.com, Generator: SVG Repo Mixer Tools -->
<svg fill="white" height="800px" width="800px" version="1.1" id="Layer_1" xmlns="http://www.w3.org/2000/svg" xmlns:xlink="http://www.w3.org/1999/xlink" 
	 viewBox="0 0 512 512" xml:space="preserve">
<g>
	<g>
		<path d="M407.147,0c0,9.304-7.57,16.873-16.873,16.873S373.402,9.304,373.402,0H340.01c0,9.304-7.569,16.873-16.871,16.873
			c-9.303,0-16.874-7.569-16.874-16.873h-33.391c0,9.304-7.57,16.873-16.873,16.873c-9.303,0-16.873-7.569-16.873-16.873h-33.391
			c0,9.304-7.57,16.873-16.873,16.873S171.992,9.304,171.992,0h-33.391c0,9.304-7.57,16.873-16.873,16.873
			c-9.303,0-16.873-7.569-16.873-16.873H71.464v512h33.391c0-9.304,7.57-16.873,16.873-16.873c9.303,0,16.873,7.569,16.873,16.873
			h33.391c0-9.304,7.569-16.873,16.872-16.873c9.303,0,16.873,7.569,16.873,16.873h33.391c0-9.304,7.57-16.873,16.873-16.873
			c9.303,0,16.873,7.569,16.873,16.873h33.391c0-9.304,7.57-16.873,16.873-16.873c9.303,0,16.872,7.569,16.872,16.873h33.391
			c0-9.304,7.57-16.873,16.873-16.873c9.303,0,16.873,7.569,16.873,16.873h33.391V0H407.147z M149.898,102.374h134.274v33.391
			H149.898V102.374z M149.898,176.792h134.274v33.391H149.898V176.792z M149.898,284.603v-33.391h134.274v33.391H149.898z
			 M362.104,405.376H222.433v-33.391h139.671V405.376z M362.104,284.603H317.74v-33.391h44.364V284.603z M362.104,210.184H317.74
			v-33.391h44.364V210.184z M362.104,135.766H317.74v-33.391h44.364V135.766z"/>
	</g>
</g>
</svg>