<svg xmlns="http://www.w3.org/2000/svg" xmlns:xlink="http://www.w3.org/1999/xlink" preserveAspectRatio="xMidYMid meet" width="1000" height="1000" viewBox="0 0 1000 1000" style="width:100%;height:100%"><defs><animateTransform repeatCount="indefinite" dur="8.0416667s" begin="0s" xlink:href="#_R_G_L_9_G_L_0_G" fill="freeze" attributeName="transform" from="0" to="0" type="rotate" additive="sum" keyTimes="0;0.4974093;0.9948187;1" values="0;115.611;0;0" keySplines="0.284 0.012 0.612 1;0.304 0.447 0.516 0.915;0 0 0 0" calcMode="spline"/><animateTransform repeatCount="indefinite" dur="8.0416667s" begin="0s" xlink:href="#_R_G_L_9_G_L_0_G" fill="freeze" attributeName="transform" from="2 2" to="2 2" type="scale" additive="sum" keyTimes="0;1" values="2 2;2 2" keySplines="0 0 1 1" calcMode="spline"/><animateTransform repeatCount="indefinite" dur="8.0416667s" begin="0s" xlink:href="#_R_G_L_8_G_L_0_G" fill="freeze" attributeName="transform" from="0" to="0" type="rotate" additive="sum" keyTimes="0;0.4818653;0.9792746;1" values="0;115.611;0;0" keySplines="0.284 0.012 0.612 1;0.304 0.447 0.516 0.915;0 0 0 0" calcMode="spline"/><animateTransform repeatCount="indefinite" dur="8.0416667s" begin="0s" xlink:href="#_R_G_L_8_G_L_0_G" fill="freeze" attributeName="transform" from="2 2" to="2 2" type="scale" additive="sum" keyTimes="0;0.984456;1" values="2 2;2 2;2 2" keySplines="0 0 1 1;0 0 0 0" calcMode="spline"/><animate repeatCount="indefinite" dur="8.0416667s" begin="0s" xlink:href="#_R_G_L_8_G_L_0_G_M" fill="freeze" attributeName="opacity" from="1" to="0" keyTimes="0;0.984456;0.984456;1" values="1;1;0;0" keySplines="0 0 0 0;0 0 0 0;0 0 0 0" calcMode="spline"/><animateTransform repeatCount="indefinite" dur="8.0416667s" begin="0s" xlink:href="#_R_G_L_7_G_L_0_G" fill="freeze" attributeName="transform" from="0" to="0" type="rotate" additive="sum" keyTimes="0;0.4663212;0.9637306;1" values="0;115.611;0;0" keySplines="0.284 0.012 0.612 1;0.304 0.447 0.516 0.915;0 0 0 0" calcMode="spline"/><animateTransform repeatCount="indefinite" dur="8.0416667s" begin="0s" xlink:href="#_R_G_L_7_G_L_0_G" fill="freeze" attributeName="transform" from="2 2" to="2 2" type="scale" additive="sum" keyTimes="0;0.9689119;1" values="2 2;2 2;2 2" keySplines="0 0 1 1;0 0 0 0" calcMode="spline"/><animate repeatCount="indefinite" dur="8.0416667s" begin="0s" xlink:href="#_R_G_L_7_G_L_0_G_M" fill="freeze" attributeName="opacity" from="1" to="0" keyTimes="0;0.9689119;0.9689119;1" values="1;1;0;0" keySplines="0 0 0 0;0 0 0 0;0 0 0 0" calcMode="spline"/><animateTransform repeatCount="indefinite" dur="8.0416667s" begin="0s" xlink:href="#_R_G_L_6_G_L_0_G" fill="freeze" attributeName="transform" from="0" to="0" type="rotate" additive="sum" keyTimes="0;0.4507772;0.9481865;1" values="0;115.611;0;0" keySplines="0.284 0.012 0.612 1;0.304 0.447 0.516 0.915;0 0 0 0" calcMode="spline"/><animateTransform repeatCount="indefinite" dur="8.0416667s" begin="0s" xlink:href="#_R_G_L_6_G_L_0_G" fill="freeze" attributeName="transform" from="2 2" to="2 2" type="scale" additive="sum" keyTimes="0;0.9533679;1" values="2 2;2 2;2 2" keySplines="0 0 1 1;0 0 0 0" calcMode="spline"/><animate repeatCount="indefinite" dur="8.0416667s" begin="0s" xlink:href="#_R_G_L_6_G_L_0_G_M" fill="freeze" attributeName="opacity" from="1" to="0" keyTimes="0;0.9533679;0.9533679;1" values="1;1;0;0" keySplines="0 0 0 0;0 0 0 0;0 0 0 0" calcMode="spline"/><animateTransform repeatCount="indefinite" dur="8.0416667s" begin="0s" xlink:href="#_R_G_L_5_G_L_0_G" fill="freeze" attributeName="transform" from="0" to="0" type="rotate" additive="sum" keyTimes="0;0.4352332;0.9326425;1" values="0;115.611;0;0" keySplines="0.284 0.012 0.612 1;0.304 0.447 0.516 0.915;0 0 0 0" calcMode="spline"/><animateTransform repeatCount="indefinite" dur="8.0416667s" begin="0s" xlink:href="#_R_G_L_5_G_L_0_G" fill="freeze" attributeName="transform" from="2 2" to="2 2" type="scale" additive="sum" keyTimes="0;0.9378238;1" values="2 2;2 2;2 2" keySplines="0 0 1 1;0 0 0 0" calcMode="spline"/><animate repeatCount="indefinite" dur="8.0416667s" begin="0s" xlink:href="#_R_G_L_5_G_L_0_G_M" fill="freeze" attributeName="opacity" from="1" to="0" keyTimes="0;0.9378238;0.9378238;1" values="1;1;0;0" keySplines="0 0 0 0;0 0 0 0;0 0 0 0" calcMode="spline"/><animateTransform repeatCount="indefinite" dur="8.0416667s" begin="0s" xlink:href="#_R_G_L_4_G_L_0_G" fill="freeze" attributeName="transform" from="0" to="0" type="rotate" additive="sum" keyTimes="0;0.4196891;0.9170984;1" values="0;115.611;0;0" keySplines="0.284 0.012 0.612 1;0.304 0.447 0.516 0.915;0 0 0 0" calcMode="spline"/><animateTransform repeatCount="indefinite" dur="8.0416667s" begin="0s" xlink:href="#_R_G_L_4_G_L_0_G" fill="freeze" attributeName="transform" from="2 2" to="2 2" type="scale" additive="sum" keyTimes="0;0.9222798;1" values="2 2;2 2;2 2" keySplines="0 0 1 1;0 0 0 0" calcMode="spline"/><animate repeatCount="indefinite" dur="8.0416667s" begin="0s" xlink:href="#_R_G_L_4_G_L_0_G_M" fill="freeze" attributeName="opacity" from="1" to="0" keyTimes="0;0.9222798;0.9222798;1" values="1;1;0;0" keySplines="0 0 0 0;0 0 0 0;0 0 0 0" calcMode="spline"/><animateTransform repeatCount="indefinite" dur="8.0416667s" begin="0s" xlink:href="#_R_G_L_3_G_L_0_G" fill="freeze" attributeName="transform" from="0" to="0" type="rotate" additive="sum" keyTimes="0;0.4041451;0.9015544;1" values="0;115.611;0;0" keySplines="0.284 0.012 0.612 1;0.304 0.447 0.516 0.915;0 0 0 0" calcMode="spline"/><animateTransform repeatCount="indefinite" dur="8.0416667s" begin="0s" xlink:href="#_R_G_L_3_G_L_0_G" fill="freeze" attributeName="transform" from="2 2" to="2 2" type="scale" additive="sum" keyTimes="0;0.9067358;1" values="2 2;2 2;2 2" keySplines="0 0 1 1;0 0 0 0" calcMode="spline"/><animate repeatCount="indefinite" dur="8.0416667s" begin="0s" xlink:href="#_R_G_L_3_G_L_0_G_M" fill="freeze" attributeName="opacity" from="1" to="0" keyTimes="0;0.9067358;0.9067358;1" values="1;1;0;0" keySplines="0 0 0 0;0 0 0 0;0 0 0 0" calcMode="spline"/><animateTransform repeatCount="indefinite" dur="8.0416667s" begin="0s" xlink:href="#_R_G_L_2_G_L_0_G" fill="freeze" attributeName="transform" from="0" to="0" type="rotate" additive="sum" keyTimes="0;0.388601;0.8860104;1" values="0;115.611;0;0" keySplines="0.284 0.012 0.612 1;0.304 0.447 0.516 0.915;0 0 0 0" calcMode="spline"/><animateTransform repeatCount="indefinite" dur="8.0416667s" begin="0s" xlink:href="#_R_G_L_2_G_L_0_G" fill="freeze" attributeName="transform" from="2 2" to="2 2" type="scale" additive="sum" keyTimes="0;0.8911917;1" values="2 2;2 2;2 2" keySplines="0 0 1 1;0 0 0 0" calcMode="spline"/><animate repeatCount="indefinite" dur="8.0416667s" begin="0s" xlink:href="#_R_G_L_2_G_L_0_G_M" fill="freeze" attributeName="opacity" from="1" to="0" keyTimes="0;0.8911917;0.8911917;1" values="1;1;0;0" keySplines="0 0 0 0;0 0 0 0;0 0 0 0" calcMode="spline"/><animateTransform repeatCount="indefinite" dur="8.0416667s" begin="0s" xlink:href="#_R_G_L_1_G_L_0_G" fill="freeze" attributeName="transform" from="0" to="0" type="rotate" additive="sum" keyTimes="0;0.373057;0.8704663;1" values="0;115.611;0;0" keySplines="0.284 0.012 0.612 1;0.304 0.447 0.516 0.915;0 0 0 0" calcMode="spline"/><animateTransform repeatCount="indefinite" dur="8.0416667s" begin="0s" xlink:href="#_R_G_L_1_G_L_0_G" fill="freeze" attributeName="transform" from="2 2" to="2 2" type="scale" additive="sum" keyTimes="0;0.8756477;1" values="2 2;2 2;2 2" keySplines="0 0 1 1;0 0 0 0" calcMode="spline"/><animate repeatCount="indefinite" dur="8.0416667s" begin="0s" xlink:href="#_R_G_L_1_G_L_0_G_M" fill="freeze" attributeName="opacity" from="1" to="0" keyTimes="0;0.8756477;0.8756477;1" values="1;1;0;0" keySplines="0 0 0 0;0 0 0 0;0 0 0 0" calcMode="spline"/><animateTransform repeatCount="indefinite" dur="8.0416667s" begin="0s" xlink:href="#_R_G_L_0_G_L_0_G" fill="freeze" attributeName="transform" from="0" to="0" type="rotate" additive="sum" keyTimes="0;0.357513;0.8549223;1" values="0;115.611;0;0" keySplines="0.284 0.012 0.612 1;0.304 0.447 0.516 0.915;0 0 0 0" calcMode="spline"/><animateTransform repeatCount="indefinite" dur="8.0416667s" begin="0s" xlink:href="#_R_G_L_0_G_L_0_G" fill="freeze" attributeName="transform" from="2 2" to="2 2" type="scale" additive="sum" keyTimes="0;0.8601036;1" values="2 2;2 2;2 2" keySplines="0 0 1 1;0 0 0 0" calcMode="spline"/><animate repeatCount="indefinite" dur="8.0416667s" begin="0s" xlink:href="#_R_G_L_0_G_L_0_G_M" fill="freeze" attributeName="opacity" from="1" to="0" keyTimes="0;0.8601036;0.8601036;1" values="1;1;0;0" keySplines="0 0 0 0;0 0 0 0;0 0 0 0" calcMode="spline"/><animate attributeType="XML" attributeName="opacity" dur="8s" from="0" to="1" xlink:href="#time_group"/></defs><g id="_R_G"><g id="_R_G_L_9_G"><g id="_R_G_L_9_G_L_0_G" opacity="0.5" transform=" translate(500, 500)"><path id="_R_G_L_9_G_L_0_G_D_0_P_0" stroke="#000000" stroke-linecap="round" stroke-linejoin="round" fill="none" stroke-width="0.5" stroke-opacity="1" d=" M175 -105 C175,-105 175,105 175,105 C175,143.63 143.63,175 105,175 C105,175 -105,175 -105,175 C-143.63,175 -175,143.63 -175,105 C-175,105 -175,-105 -175,-105 C-175,-143.63 -143.63,-175 -105,-175 C-105,-175 105,-175 105,-175 C143.63,-175 175,-143.63 175,-105z "/></g></g><g id="_R_G_L_8_G"><g id="_R_G_L_8_G_L_0_G_M"><g id="_R_G_L_8_G_L_0_G" opacity="0.5" transform=" translate(500, 500)"><path id="_R_G_L_8_G_L_0_G_D_0_P_0" stroke="#000000" stroke-linecap="round" stroke-linejoin="round" fill="none" stroke-width="0.5" stroke-opacity="1" d=" M175 -105 C175,-105 175,105 175,105 C175,143.63 143.63,175 105,175 C105,175 -105,175 -105,175 C-143.63,175 -175,143.63 -175,105 C-175,105 -175,-105 -175,-105 C-175,-143.63 -143.63,-175 -105,-175 C-105,-175 105,-175 105,-175 C143.63,-175 175,-143.63 175,-105z "/></g></g></g><g id="_R_G_L_7_G"><g id="_R_G_L_7_G_L_0_G_M"><g id="_R_G_L_7_G_L_0_G" opacity="0.5" transform=" translate(500, 500)"><path id="_R_G_L_7_G_L_0_G_D_0_P_0" stroke="#000000" stroke-linecap="round" stroke-linejoin="round" fill="none" stroke-width="0.5" stroke-opacity="1" d=" M175 -105 C175,-105 175,105 175,105 C175,143.63 143.63,175 105,175 C105,175 -105,175 -105,175 C-143.63,175 -175,143.63 -175,105 C-175,105 -175,-105 -175,-105 C-175,-143.63 -143.63,-175 -105,-175 C-105,-175 105,-175 105,-175 C143.63,-175 175,-143.63 175,-105z "/></g></g></g><g id="_R_G_L_6_G"><g id="_R_G_L_6_G_L_0_G_M"><g id="_R_G_L_6_G_L_0_G" opacity="0.5" transform=" translate(500, 500)"><path id="_R_G_L_6_G_L_0_G_D_0_P_0" stroke="#000000" stroke-linecap="round" stroke-linejoin="round" fill="none" stroke-width="0.5" stroke-opacity="1" d=" M175 -105 C175,-105 175,105 175,105 C175,143.63 143.63,175 105,175 C105,175 -105,175 -105,175 C-143.63,175 -175,143.63 -175,105 C-175,105 -175,-105 -175,-105 C-175,-143.63 -143.63,-175 -105,-175 C-105,-175 105,-175 105,-175 C143.63,-175 175,-143.63 175,-105z "/></g></g></g><g id="_R_G_L_5_G"><g id="_R_G_L_5_G_L_0_G_M"><g id="_R_G_L_5_G_L_0_G" opacity="0.5" transform=" translate(500, 500)"><path id="_R_G_L_5_G_L_0_G_D_0_P_0" stroke="#000000" stroke-linecap="round" stroke-linejoin="round" fill="none" stroke-width="0.5" stroke-opacity="1" d=" M175 -105 C175,-105 175,105 175,105 C175,143.63 143.63,175 105,175 C105,175 -105,175 -105,175 C-143.63,175 -175,143.63 -175,105 C-175,105 -175,-105 -175,-105 C-175,-143.63 -143.63,-175 -105,-175 C-105,-175 105,-175 105,-175 C143.63,-175 175,-143.63 175,-105z "/></g></g></g><g id="_R_G_L_4_G"><g id="_R_G_L_4_G_L_0_G_M"><g id="_R_G_L_4_G_L_0_G" opacity="0.5" transform=" translate(500, 500)"><path id="_R_G_L_4_G_L_0_G_D_0_P_0" stroke="#000000" stroke-linecap="round" stroke-linejoin="round" fill="none" stroke-width="0.5" stroke-opacity="1" d=" M175 -105 C175,-105 175,105 175,105 C175,143.63 143.63,175 105,175 C105,175 -105,175 -105,175 C-143.63,175 -175,143.63 -175,105 C-175,105 -175,-105 -175,-105 C-175,-143.63 -143.63,-175 -105,-175 C-105,-175 105,-175 105,-175 C143.63,-175 175,-143.63 175,-105z "/></g></g></g><g id="_R_G_L_3_G"><g id="_R_G_L_3_G_L_0_G_M"><g id="_R_G_L_3_G_L_0_G" opacity="0.5" transform=" translate(500, 500)"><path id="_R_G_L_3_G_L_0_G_D_0_P_0" stroke="#000000" stroke-linecap="round" stroke-linejoin="round" fill="none" stroke-width="0.5" stroke-opacity="1" d=" M175 -105 C175,-105 175,105 175,105 C175,143.63 143.63,175 105,175 C105,175 -105,175 -105,175 C-143.63,175 -175,143.63 -175,105 C-175,105 -175,-105 -175,-105 C-175,-143.63 -143.63,-175 -105,-175 C-105,-175 105,-175 105,-175 C143.63,-175 175,-143.63 175,-105z "/></g></g></g><g id="_R_G_L_2_G"><g id="_R_G_L_2_G_L_0_G_M"><g id="_R_G_L_2_G_L_0_G" opacity="0.5" transform=" translate(500, 500)"><path id="_R_G_L_2_G_L_0_G_D_0_P_0" stroke="#000000" stroke-linecap="round" stroke-linejoin="round" fill="none" stroke-width="0.5" stroke-opacity="1" d=" M175 -105 C175,-105 175,105 175,105 C175,143.63 143.63,175 105,175 C105,175 -105,175 -105,175 C-143.63,175 -175,143.63 -175,105 C-175,105 -175,-105 -175,-105 C-175,-143.63 -143.63,-175 -105,-175 C-105,-175 105,-175 105,-175 C143.63,-175 175,-143.63 175,-105z "/></g></g></g><g id="_R_G_L_1_G"><g id="_R_G_L_1_G_L_0_G_M"><g id="_R_G_L_1_G_L_0_G" opacity="0.5" transform=" translate(500, 500)"><path id="_R_G_L_1_G_L_0_G_D_0_P_0" stroke="#000000" stroke-linecap="round" stroke-linejoin="round" fill="none" stroke-width="0.5" stroke-opacity="1" d=" M175 -105 C175,-105 175,105 175,105 C175,143.63 143.63,175 105,175 C105,175 -105,175 -105,175 C-143.63,175 -175,143.63 -175,105 C-175,105 -175,-105 -175,-105 C-175,-143.63 -143.63,-175 -105,-175 C-105,-175 105,-175 105,-175 C143.63,-175 175,-143.63 175,-105z "/></g></g></g><g id="_R_G_L_0_G"><g id="_R_G_L_0_G_L_0_G_M"><g id="_R_G_L_0_G_L_0_G" opacity="0.5" transform=" translate(500, 500)"><path id="_R_G_L_0_G_L_0_G_D_0_P_0" stroke="#000000" stroke-linecap="round" stroke-linejoin="round" fill="none" stroke-width="0.5" stroke-opacity="1" d=" M175 -105 C175,-105 175,105 175,105 C175,143.63 143.63,175 105,175 C105,175 -105,175 -105,175 C-143.63,175 -175,143.63 -175,105 C-175,105 -175,-105 -175,-105 C-175,-143.63 -143.63,-175 -105,-175 C-105,-175 105,-175 105,-175 C143.63,-175 175,-143.63 175,-105z "/></g></g></g></g><g id="time_group"/></svg>